<?xml version="1.0" encoding="utf-8"?>
<!-- Generator: Adobe Illustrator 23.0.1, SVG Export Plug-In . SVG Version: 6.00 Build 0)  -->
<svg version="1.1" id="Layer_1" xmlns="http://www.w3.org/2000/svg" xmlns:xlink="http://www.w3.org/1999/xlink" x="0px" y="0px"
	 viewBox="0 0 300 300" style="enable-background:new 0 0 300 300;" xml:space="preserve">
<style type="text/css">
	.st0{fill:#010101;}
</style>
<path class="st0" d="M144.47,219.61c-1.95,2.83-3.6,5.31-5.31,7.79c-9.92,14.11-20.9,27.33-33.89,38.67
	c-1.71,1.53-3.6,2.89-5.49,4.19c-0.59,0.41-1.42,0.59-2.18,0.89c0-0.77-0.18-1.59,0-2.36c1.36-5.55,2.77-11.1,4.19-16.65
	c3.54-13.52,7.2-27.04,9.68-40.85c0.12-0.53,0.12-1.12,0.24-2.01c-0.65,0.47-0.94,0.71-1.3,1c-14.35,12.52-30.7,21.37-48.94,26.63
	c-2.07,0.59-4.25,0.77-6.38,1.12c-0.35,0.06-1-0.12-1.12-0.41c-0.12-0.24,0.06-0.83,0.3-1.12c1.89-2.24,3.72-4.55,5.73-6.67
	c10.04-10.74,19.84-21.67,28.75-33.36c0.53-0.65,1-1.36,1.3-2.36c-0.59,0.12-1.24,0.3-1.83,0.47c-13.76,3.72-27.75,5.55-41.98,5.55
	c-1.65,0-3.25-0.12-4.9-0.24c-0.65-0.06-1.3-0.24-1.89-0.41c-0.06-0.18-0.06-0.3-0.12-0.47c0.94-0.47,1.83-1,2.83-1.36
	c5.02-2.01,10.04-3.9,15-6.02c10.74-4.49,20.9-10.1,30.58-16.53c3.9-2.6,8.15-4.66,12.28-6.97c0.24-0.12,0.47-0.24,0.94-0.47
	c-0.47-0.53-0.89-1.06-1.36-1.53c-7.85-7.97-14.76-16.77-20.31-26.51c-4.55-8.03-8.03-16.53-9.56-25.74
	c-1.77-10.8,0.18-20.96,4.84-30.76c4.37-9.15,10.39-16.83,18.3-23.02c0.89-0.71,1.12-1.36,1-2.42c-0.77-8.56,1.36-16.24,7.26-22.67
	c8.15-8.86,21.73-11.45,32.65-6.26c4.01,1.89,7.56,4.37,10.51,7.73c0.53,0.65,1.06,0.77,1.89,0.53c7.08-1.89,14.17-1.83,21.25,0.35
	c0.94,0.3,1.36-0.06,1.95-0.71c7.85-8.38,17.42-12.1,28.81-9.86c10.74,2.13,17,8.97,19.48,19.48c1.36,5.79,1.42,11.57-0.41,17.24
	c-0.3,1,0.24,1.42,0.83,1.95c8.62,8.21,14.7,18.01,18.42,29.28c3.31,10.21,2.72,20.25-1,30.29c-4.78,12.87-11.98,24.32-20.84,34.77
	c-4.49,5.25-9.5,10.04-14.35,15.05c-0.47,0.47-1.06,0.83-1.83,1.36c1,0.94,1.71,1.48,2.36,2.13c6.49,6.49,12.87,13.17,19.42,19.54
	c8.09,7.79,17.24,14.17,27.04,19.66c3.42,1.89,6.85,3.78,10.27,5.61c0.53,0.3,1,0.59,1.48,0.94c0.83,0.65,0.71,1.3-0.24,1.59
	c-1.3,0.41-2.66,0.83-4.07,0.94c-6.97,0.59-13.7-0.65-20.37-2.66c-8.5-2.6-16.35-6.49-23.85-11.22c-0.59-0.35-1.18-0.71-1.77-1.06
	c-0.12,0.06-0.18,0.18-0.3,0.24c0.35,0.71,0.65,1.48,1,2.13c6.91,12.75,13.87,25.44,20.78,38.2c0.94,1.71,1.77,3.54,2.6,5.31
	c0.77,1.65,0.35,2.24-1.42,1.83c-2.72-0.65-5.43-1.36-7.97-2.42c-8.8-3.66-16.59-8.97-23.79-15.11
	c-7.67-6.61-14.35-14.05-20.31-22.26c-0.24-0.3-0.47-0.53-1-1.12c-0.3,1.89-0.53,3.48-0.77,5.08c-1.53,12.16-3.01,24.38-4.66,36.54
	c-0.59,4.6-1.48,9.21-2.24,13.81c-0.24,1.53-1.77,3.07-3.25,3.19c-0.41,0-1.06-0.47-1.3-0.89c-2.36-3.78-4.9-7.38-6.85-11.34
	c-5.61-11.28-9.21-23.26-12.28-35.42c-0.71-2.77-1.36-5.61-2.01-8.44C144.82,220.67,144.7,220.32,144.47,219.61z M203.15,203.55
	c0.18-0.06,0.35-0.12,0.53-0.24c0.24,0.35,0.53,0.65,0.71,1c0.71,1.89,2.18,2.95,3.84,3.96c7.08,4.19,14.52,7.73,22.26,10.63
	c6.61,2.48,13.34,4.66,20.54,5.08c0.59,0.06,1.18,0,1.77,0c-0.3-0.53-0.59-0.77-0.94-0.94c-3.42-1.83-6.91-3.6-10.27-5.55
	c-11.57-6.79-22.08-14.94-31.11-24.91c-4.13-4.55-8.38-9.03-12.52-13.58c-0.83-0.94-1.42-0.89-2.36-0.12
	c-6.67,5.43-13.76,10.21-21.73,13.58c-7.5,3.19-15.23,5.14-23.44,4.13c-5.84-0.71-11.28-2.77-16.53-5.31
	c-10.98-5.37-20.6-12.57-29.46-20.84c-0.89-0.83-1.59-1.06-2.66-0.35c-2.95,1.83-5.96,3.54-8.86,5.43
	c-12.81,8.56-25.98,16.41-40.74,21.19c-0.3,0.06-0.53,0.3-1,0.53c0.77,0,1.18,0.06,1.59,0c4.6-0.59,9.15-1.12,13.76-1.83
	c8.86-1.48,17.71-3.07,26.63-4.55c0.77-0.12,1.53,0,2.3,0l0.3,0.53c-10.98,15.05-23.2,29.11-35.89,43.21
	c0.83-0.18,1.24-0.24,1.59-0.35c11.28-3.9,22.08-8.86,32.12-15.29c6.61-4.25,12.87-8.91,19.31-13.4c0.47-0.35,1-0.59,1.48-0.89
	c0.18,0.12,0.3,0.18,0.47,0.3c-2.24,21.02-7.38,41.38-13.7,61.58c0.53-0.24,0.89-0.53,1.24-0.83
	c11.39-10.92,21.43-23.02,31.05-35.54c3.54-4.6,7.03-9.15,10.57-13.7c0.35-0.41,0.77-0.77,1.48-1.42c0.77,2.36,1.48,4.37,2.07,6.44
	c3.42,11.81,6.73,23.61,11.22,35.01c2.3,5.79,4.78,11.45,8.21,16.65c0.24,0.35,0.53,0.71,1.06,1.3c0.18-0.94,0.3-1.48,0.35-2.07
	c1.95-15.17,3.84-30.34,5.84-45.52c0.53-3.96,1.48-7.85,2.3-11.75c0.35-1.65,0.94-1.77,2.13-0.59c1.3,1.3,2.54,2.66,3.72,4.01
	c8.21,9.33,16.71,18.36,26.63,26.04c5.79,4.49,11.87,8.38,18.71,11.04c0.47,0.18,0.94,0.3,1.71,0.53c-0.41-0.77-0.65-1.18-0.89-1.59
	c-4.01-6.67-8.09-13.34-11.98-20.07c-4.78-8.38-9.21-16.94-12.16-26.09C203.86,206.74,203.56,205.15,203.15,203.55z M94.58,61.8
	c-0.65,0.47-1.12,0.83-1.53,1.18c-6.38,5.37-11.34,11.93-14.94,19.42c-5.14,10.69-7.26,21.78-4.72,33.53
	c2.13,9.68,6.26,18.48,11.57,26.74c6.61,10.33,14.58,19.48,23.61,27.75c8.5,7.73,17.77,14.46,28.22,19.36
	c10.33,4.84,20.84,5.73,31.64,1.83c8.27-3.01,15.7-7.5,22.61-12.87c9.27-7.26,17.36-15.7,24.44-25.09
	c6.61-8.74,12.22-18.01,16.18-28.22c2.83-7.32,4.55-14.82,3.07-22.73c-2.48-13.4-8.91-24.8-17.95-34.83
	c-0.3-0.35-0.71-0.65-0.71-0.65c-1.48,0.47-2.6,1.06-3.72,1.18c-9.86,1.06-19.31-0.47-28.28-4.55c-6.2-2.83-11.16-7.14-14.82-12.93
	c-1.83-2.95-3.25-6.08-2.42-9.68c0.3-1.18,0.06-1.53-1.06-1.71c-5.79-1.12-11.57-1.12-17.42-0.35c-0.59,0.06-1.18,0.24-1.89,0.41
	c0.24,0.59,0.35,0.94,0.53,1.36c1.71,3.31,1.42,6.61-0.47,9.62c-1.48,2.3-3.13,4.6-5.14,6.38c-7.26,6.44-15.59,10.92-25.27,12.57
	c-5.14,0.89-10.33,1.06-15.47-0.47c-2.42-0.71-4.13-2.18-5.08-4.49C95.35,63.69,95.05,62.87,94.58,61.8z M221.51,91.44
	c0.59,0.47,1.18,0.89,1.71,1.42c2.83,3.01,3.72,6.79,3.9,10.74c0.18,4.13-0.65,8.15-2.3,11.98c-0.35,0.83-0.94,1.59-1.36,2.36
	c-0.18-0.06-0.41-0.12-0.59-0.18c0.41-4.19,0.77-8.38,1.18-12.63c-0.12-0.12-0.3-0.18-0.41-0.3c-1.18,0.65-2.3,1.48-3.54,2.01
	c-1.53,0.65-1.83,1.89-2.24,3.25c-3.19,11.16-8.09,21.61-13.93,31.64c-5.31,9.09-11.45,17.59-18.89,25.09
	c-4.31,4.31-9.03,8.09-14.35,11.04c-9.45,5.2-18.95,5.37-28.69,0.89c-8.68-4.01-16.12-9.8-22.79-16.53
	c-11.28-11.39-19.84-24.5-25.44-39.5c-1.59-4.25-2.6-8.74-3.96-13.11c-0.18-0.59-0.65-1.24-1.18-1.65
	c-1.12-0.89-2.42-1.59-3.84-2.54c-0.94,3.78-0.94,7.56-1.59,11.22c-2.77-4.6-2.48-9.39-1.18-14.23c1-3.78,2.66-7.2,6.02-9.39
	c0.18,0.12,0.35,0.18,0.47,0.3c-0.18,0.47-0.35,0.94-0.47,1.42c-0.77,2.24-1.53,4.43-2.42,6.67c-0.41,1.06,0,1.65,0.83,2.24
	c5.2,3.48,10.98,5.79,16.83,7.85c14.23,4.9,28.81,8.15,43.75,9.8c8.38,0.94,16.65,0,24.85-1.36c14.05-2.36,27.75-6.08,40.74-11.98
	c3.42-1.53,6.67-3.48,9.98-5.2c0.94-0.47,1.24-1.12,0.94-2.13c-0.65-2.36-1.36-4.72-2.01-7.08c-0.18-0.59-0.3-1.18-0.41-1.77
	L221.51,91.44z M215.55,109.51c-0.59,0.12-0.83,0.18-1,0.24c-8.62,4.19-17.53,7.38-26.74,9.92c-0.53,0.18-1.18,0.83-1.36,1.42
	c-1.89,6.38-4.72,12.28-8.74,17.65c-4.19,5.67-9.09,10.57-15.64,13.64c-2.95,1.42-5.96,1.71-9.15,0.83
	c-4.13-1.18-7.73-3.25-10.92-6.02c-7.67-6.55-12.93-14.7-16-24.26c-0.41-1.3-1.12-1.89-2.42-2.18c-10.04-2.3-19.78-5.37-29.11-9.74
	c-0.59-0.3-1.18-0.53-2.07-0.89c0.12,0.65,0.12,1.06,0.24,1.48c0.53,1.95,1.06,3.9,1.71,5.84c3.72,10.98,9.33,20.9,16.35,30.05
	c7.44,9.68,15.88,18.3,26.33,24.85c4.78,3.01,9.8,5.43,15.41,6.26c6.73,0.94,12.75-1.06,18.48-4.43
	c7.85-4.66,14.05-11.16,19.66-18.3c9.45-12.16,16.88-25.5,22.73-39.73C214.07,113.99,214.72,111.87,215.55,109.51z M107.33,67.18
	c10.63-0.18,20.13-3.54,28.57-9.86c3.19-2.36,6.08-5.02,8.21-8.44c2.3-3.66,2.18-5.43-0.47-8.86c-0.3-0.35-0.59-0.71-0.94-1.12
	c-2.66-2.95-5.84-5.14-9.39-6.79c-15.17-7.26-31.58,0.59-35.48,15.76c-1.36,5.2-1.53,10.45,0.24,15.64c0.59,1.77,1.65,2.89,3.6,3.07
	C103.5,66.76,105.45,66.94,107.33,67.18z M215.61,55.37c-0.24-2.48-0.3-4.31-0.59-6.2c-1.36-9.21-6.08-15.7-15.23-18.66
	c-11.98-3.84-23.91,2.6-29.64,9.5c-1.24,1.48-1.36,3.13-0.83,4.9c1.06,3.42,3.25,6.08,5.67,8.56c5.67,5.73,12.57,9.09,20.31,10.92
	c5.08,1.18,10.21,1.95,15.47,1.77c2.89-0.12,3.19-0.24,3.72-3.07C215.02,60.33,215.31,57.55,215.61,55.37z M119.56,53.6
	c2.95-0.3,5.61-2.36,6.2-5.14c0.59-2.66,0.59-2.66,3.31-2.95c0.3-0.06,0.59-0.06,0.89-0.12c1.12-0.18,1.95-0.71,1.83-1.95
	c-0.06-1.24-0.89-1.83-2.07-1.77c-1.59,0.12-3.13,0.41-4.72,0.47c-0.71,0.06-1.53-0.06-2.13-0.35c-3.66-2.18-8.03-0.41-9.09,3.72
	c-0.18,0.71-0.71,1.42-1.24,1.95c-1.12,1.12-2.42,2.07-3.6,3.13c-1.24,1.12-1.42,2.18-0.71,3.13c0.77,0.94,1.89,1,3.19,0.12
	c0.89-0.59,1.77-1.18,2.6-1.83c0.77-0.65,1.24-0.59,2.13,0C117.13,52.71,118.37,53.07,119.56,53.6z M127.58,121.79
	c0.24,0.83,0.41,1.36,0.59,1.89c2.18,5.43,5.25,10.39,9.03,14.88c3.9,4.66,8.32,8.8,14.05,11.28c3.9,1.71,7.62,1.71,11.28-0.59
	c10.51-6.61,17.47-16.06,21.84-27.51c0.12-0.3,0.06-0.71,0.12-1.12c-0.35,0.06-0.53,0-0.71,0.06c-8.27,2.01-16.71,3.42-25.21,4.01
	c-0.94,0.06-1.06,0.53-1.06,1.3c0.06,1.83,0.06,3.66-0.06,5.49c-0.06,1.3-0.3,2.6-0.47,3.9c-0.18,0-0.3,0-0.47,0
	c-0.12-0.47-0.3-0.94-0.35-1.42c-0.41-2.54-0.83-5.14-1.12-7.73c-0.12-1.06-0.53-1.36-1.53-1.36c-7.85,0-15.64-1.18-23.32-2.6
	C129.41,122.02,128.65,121.9,127.58,121.79z M187.98,47.75c-0.18,4.55,4.31,7.67,8.5,6.08c0.77-0.3,1.65-0.89,2.3-0.71
	c0.71,0.18,1.24,1.12,1.83,1.77c0.24,0.24,0.41,0.53,0.65,0.77c0.77,0.89,1.71,1.12,2.66,0.35s0.94-1.77,0.24-2.66
	c-1-1.24-2.07-2.42-3.07-3.66c-0.41-0.47-0.83-1.12-0.83-1.71c-0.24-4.66-3.96-7.2-8.32-5.67c-0.59,0.24-1.42,0.18-2.07,0
	c-1.65-0.35-3.25-0.94-4.9-1.3c-1.53-0.35-2.54,0.12-2.83,1.24c-0.35,1.18,0.24,2.13,1.71,2.72c0.94,0.35,1.89,0.77,2.83,1.06
	C187.68,46.34,188.39,46.75,187.98,47.75z"/>
</svg>
